<?xml version="1.0" encoding="utf-8"?>
<!-- Generator: Adobe Illustrator 23.0.0, SVG Export Plug-In . SVG Version: 6.00 Build 0)  -->
<svg version="1.1" id="Layer_1" xmlns="http://www.w3.org/2000/svg" xmlns:xlink="http://www.w3.org/1999/xlink" x="0px" y="0px"
	 viewBox="0 0 685.9 177.62" style="enable-background:new 0 0 685.9 177.62;" xml:space="preserve">
<style type="text/css">
	.st0{fill:#FFFFFF;}
	.st1{fill:none;stroke:#FFFFFF;stroke-width:0.192;stroke-miterlimit:10;}
</style>
<path class="st0" d="M16.06,45.53c0,6.47,4.14,10.71,9.8,10.71c6.37,0,9.9-5.15,9.9-11.62c0-6.47-3.53-11.62-9.9-11.62
	c-5.66,0-9.8,4.24-9.8,10.71V45.53z M16.37,83.32H0V22.09h16.37v7.88c2.42-5.35,7.27-9.09,14.85-9.09
	c13.24,0,21.01,10.51,21.01,23.74c0,13.23-7.78,23.74-21.01,23.74c-7.58,0-12.43-3.74-14.85-9.09V83.32z"/>
<path class="st0" d="M93.76,22.09h16.37v45.06H93.76v-7.78c-2.22,5.25-8.79,8.99-15.46,8.99c-12.43,0-17.07-8.59-17.07-17.98V22.09
	H77.6v24.35c0,6.16,2.42,9.4,7.38,9.4c5.56,0,8.79-4.85,8.79-11.62V22.09z"/>
<path class="st0" d="M138.83,67.15h-16.37V22.09h16.37v7.78c2.22-5.25,8.79-8.99,15.46-8.99c12.43,0,17.38,8.59,17.38,17.98v28.29
	H155.3V42.8c0-6.16-2.73-9.4-7.68-9.4c-5.56,0-8.79,4.85-8.79,11.62V67.15z"/>
<path class="st0" d="M228.75,51.59c-1.92,9.8-10,16.77-23.03,16.77c-14.65,0-25.05-9.19-25.05-23.74
	c0-14.45,10.41-23.74,25.05-23.74c12.33,0,20.21,6.26,22.63,15.26l-14.04,3.53c-1.11-4.24-3.64-6.67-7.88-6.67
	c-5.15,0-9.09,3.84-9.09,11.62s3.94,11.62,9.09,11.62c4.55,0,7.17-2.93,8.18-7.78L228.75,51.59z"/>
<path class="st0" d="M290.37,43.71c0-6.47-4.14-10.71-9.8-10.71c-6.37,0-9.9,5.15-9.9,11.62c0,6.47,3.53,11.62,9.9,11.62
	c5.66,0,9.8-4.24,9.8-10.71V43.71z M290.06,59.27c-2.42,5.36-7.28,9.09-14.85,9.09c-13.24,0-21.01-10.51-21.01-23.74
	c0-13.24,7.78-23.74,21.01-23.74c7.58,0,12.43,3.74,14.85,9.09V3.5h16.37v63.65h-16.37V59.27z"/>
<path class="st0" d="M349.17,40.08c-0.2-4.45-3.03-8.08-8.18-8.08c-5.25,0-7.88,3.54-8.59,8.08H349.17z M363.92,54.93
	c-2.93,9.09-11.21,13.44-22.73,13.44c-14.95,0-25.26-9.29-25.26-23.03c0-14.24,10.71-24.45,25.05-24.45
	c15.36,0,23.13,10.31,23.13,22.53v3.84H332.1c0.1,5.45,3.64,9.39,9.8,9.39c4.34,0,7.58-1.51,9.3-4.95L363.92,54.93z"/>
<path class="st0" d="M379.79,51.8c2.73,3.94,9.19,5.96,14.45,5.96c4.04,0,6.67-0.91,6.67-2.93c0-2.02-2.02-2.53-4.65-3.03
	l-9.19-1.72c-9.5-1.82-15.56-6.36-15.56-14.45c0-8.28,7.88-14.75,20.1-14.75c10.71,0,17.38,3.33,22.43,8.89l-8.89,6.57
	c-3.64-3.44-7.88-4.85-13.54-4.85c-2.63,0-5.15,0.81-5.15,2.83c0,1.21,1.01,2.12,2.93,2.53l12.32,2.63
	c7.98,1.72,14.14,5.66,14.14,13.33c0,9.5-8.18,15.56-21.62,15.56c-9.3,0-20-3.13-24.75-9.9L379.79,51.8z"/>
<rect x="425.87" y="22.09" class="st0" width="16.37" height="45.06"/>
<path class="st0" d="M475.98,29.57c-3.64,0-5.86,2.43-5.86,6.26c0,3.94,2.22,6.37,5.86,6.37c3.74,0,5.86-2.42,5.86-6.37
	C481.84,31.99,479.72,29.57,475.98,29.57 M475.68,76.85c7.98,0,14.04-1.72,14.04-4.85c0-2.12-1.52-2.93-4.35-2.93H467.5
	c-2.02,0-3.33,1.11-3.33,3.13C464.16,75.84,469.31,76.85,475.68,76.85 M475.48,84.53c-13.54,0-24.95-2.53-24.95-11.01
	c0-3.94,3.54-7.07,8.69-7.48c-4.24-1.31-6.77-4.95-6.77-8.79c0-4.55,3.33-8.08,8.89-9.8c-4.65-2.53-7.48-6.57-7.48-11.62
	c0-9.29,9.09-14.95,22.02-14.95c5.56,0,10.81,1.21,14.75,3.54c2.12-4.65,7.58-9.6,15.46-8.49l1.01,11.92
	c-3.64-1.01-8.18,0.2-10.81,1.62c1.11,1.92,1.82,4.04,1.82,6.36c0,9.19-9.4,14.85-22.23,14.85c-3.13,0-6.06-0.3-8.59-1.01
	c-1.41,0.71-2.73,1.41-2.73,3.13c0,1.52,1.11,2.73,4.14,2.73h21.32c9.8,0,15.15,5.05,15.15,12.63
	C505.18,79.38,490.83,84.53,475.48,84.53"/>
<path class="st0" d="M529.43,67.15h-16.37V22.09h16.37v7.78c2.22-5.25,8.79-8.99,15.46-8.99c12.43,0,17.38,8.59,17.38,17.98v28.29
	H545.9V42.8c0-6.16-2.73-9.4-7.68-9.4c-5.56,0-8.79,4.85-8.79,11.62V67.15z"/>
<path class="st0" d="M249.19,60.91c0,4.33-3.51,7.85-7.85,7.85c-4.33,0-7.85-3.51-7.85-7.85c0-4.33,3.51-7.85,7.85-7.85
	C245.68,53.06,249.19,56.58,249.19,60.91"/>
<path class="st0" d="M441.71,7.85c0,4.33-3.51,7.85-7.85,7.85c-4.33,0-7.85-3.51-7.85-7.85c0-4.33,3.51-7.85,7.85-7.85
	C438.2,0,441.71,3.51,441.71,7.85"/>
<path class="st1" d="M320.85,113.24c11.96,0,16.56,8.49,16.56,18.2v28.42h-14.72v-25.05c0-6.54-2.96-10.12-8.18-10.12
	c-5.72,0-9.3,5.11-9.3,12.37v22.8h-14.72v-25.05c0-6.54-2.86-10.12-8.08-10.12c-5.73,0-9.3,5.11-9.3,12.37v22.8h-14.83v-45.39h14.83
	v8.18c2.04-5.42,8.89-9.41,15.64-9.41c7.98,0,13.09,4.09,15.03,10.02C305.92,117.84,312.36,113.24,320.85,113.24z"/>
<path class="st1" d="M377.6,137.37l-9.51,2.66c-3.78,1.13-6.64,2.76-6.64,6.24c0,2.96,2.15,4.81,5.42,4.81
	c5.42,0,10.73-3.68,10.73-9.92V137.37z M348.57,126.84c3.27-7.97,11.04-13.6,23.41-13.6c11.86,0,19.53,4.5,19.53,16.36v18.3
	c0,2.15,1.33,3.17,3.17,3.17c1.74,0,3.89-0.92,5.11-2.04l1.02,8.79c-3.48,2.15-6.85,3.17-10.53,3.17c-6.54,0-11.45-3.89-12.37-9.1
	c-2.56,5.42-8.49,8.69-16.15,8.69c-8.59,0-14.82-4.6-14.82-12.78c0-8.18,7.26-11.45,16.15-13.7l14.52-3.68v-1.53
	c0-3.68-2.35-5.21-6.34-5.21c-5.62,0-9.1,2.96-9.71,6.54L348.57,126.84z"/>
<path class="st1" d="M422.7,159.86h-14.83v-45.39h14.83v8.18c2.15-5.42,8.69-9.41,15.74-9.41c12.37,0,17.38,8.49,17.38,18.2v28.42
	H441v-25.05c0-6.54-2.96-10.12-8.49-10.12c-6.03,0-9.81,5.11-9.81,12.37V159.86z"/>
<path class="st1" d="M482.38,159.86h-14.83v-45.39h14.83v8.18c2.14-5.42,8.69-9.41,15.74-9.41c12.37,0,17.38,8.49,17.38,18.2v28.42
	h-14.82v-25.05c0-6.54-2.96-10.12-8.49-10.12c-6.03,0-9.81,5.11-9.81,12.37V159.86z"/>
<path class="st1" d="M550.79,150.36c6.54,0,10.33-5.32,10.33-13.19c0-7.87-3.78-13.19-10.33-13.19c-6.54,0-10.33,5.32-10.33,13.19
	C540.46,145.04,544.25,150.36,550.79,150.36z M550.79,161.09c-14.52,0-25.46-9.81-25.46-23.92c0-14.01,10.94-23.92,25.46-23.92
	c14.52,0,25.36,9.92,25.36,23.92C576.15,151.28,565.31,161.09,550.79,161.09z"/>
<polygon class="st1" points="596.42,159.86 578.42,114.47 593.96,114.47 605,144.94 605.41,144.94 616.97,114.47 630.56,114.47 
	612.57,159.86 "/>
<path class="st1" d="M651.35,108.44l5.73-15.54h14.83l-10.73,15.54H651.35z M662.59,137.37l-9.51,2.66
	c-3.78,1.13-6.65,2.76-6.65,6.24c0,2.96,2.15,4.81,5.42,4.81c5.42,0,10.73-3.68,10.73-9.92V137.37z M633.56,126.84
	c3.27-7.97,11.04-13.6,23.41-13.6c11.86,0,19.53,4.5,19.53,16.36v18.3c0,2.15,1.33,3.17,3.17,3.17c1.74,0,3.89-0.92,5.11-2.04
	l1.02,8.79c-3.47,2.15-6.85,3.17-10.53,3.17c-6.54,0-11.45-3.89-12.37-9.1c-2.56,5.42-8.49,8.69-16.15,8.69
	c-8.59,0-14.83-4.6-14.83-12.78c0-8.18,7.26-11.45,16.16-13.7l14.52-3.68v-1.53c0-3.68-2.35-5.21-6.34-5.21
	c-5.62,0-9.1,2.96-9.71,6.54L633.56,126.84z"/>
<path class="st0" d="M14.52,139.28c0,7.26,4.6,11.96,10.84,11.96c7.05,0,10.94-5.52,10.94-12.88c0-7.36-3.88-12.88-10.94-12.88
	c-6.23,0-10.84,4.71-10.84,11.96V139.28z M14.82,177.62H0v-61.96h14.82v8.38c2.35-5.63,7.36-9.61,15.23-9.61
	c13.39,0,21.27,10.63,21.27,23.93c0,13.39-7.87,23.92-21.27,23.92c-7.87,0-12.88-3.99-15.23-9.61V177.62z"/>
<path class="st0" d="M93.86,115.66h14.82v45.4H93.86v-8.18c-2.15,5.42-8.69,9.41-15.64,9.41c-12.47,0-17.17-8.49-17.17-18.2v-28.42
	h14.82v25.05c0,6.54,2.66,10.12,8.18,10.12c6.03,0,9.82-5.11,9.82-12.37V115.66z"/>
<path class="st0" d="M136.81,161.05h-14.83v-45.4h14.83v8.18c2.15-5.42,8.69-9.41,15.74-9.41c12.37,0,17.38,8.49,17.38,18.2v28.42
	h-14.83V136c0-6.54-2.96-10.12-8.49-10.12c-6.03,0-9.81,5.11-9.81,12.37V161.05z"/>
<path class="st0" d="M227.1,146.13c-2.15,9.3-9.92,16.15-22.6,16.15c-14.62,0-24.95-9.41-24.95-23.92
	c0-14.42,10.32-23.93,24.95-23.93c11.96,0,19.53,6.03,22.08,14.72l-12.57,3.68c-1.33-4.5-4.19-7.26-8.9-7.26
	c-6.03,0-10.43,4.4-10.43,12.78c0,8.38,4.4,12.78,10.33,12.78c5.11,0,8.18-3.17,9.3-8.28L227.1,146.13z"/>
<path class="st0" d="M239.5,161.03c-4.07,0-7.36-3.3-7.36-7.36c0-4.07,3.3-7.36,7.36-7.36c4.07,0,7.36,3.3,7.36,7.36
	C246.86,157.74,243.57,161.03,239.5,161.03"/>
</svg>
