<?xml version="1.0" encoding="utf-8"?>
<!-- Generator: Adobe Illustrator 23.0.0, SVG Export Plug-In . SVG Version: 6.00 Build 0)  -->
<svg version="1.1" id="Layer_1" xmlns="http://www.w3.org/2000/svg" xmlns:xlink="http://www.w3.org/1999/xlink" x="0px" y="0px"
	 viewBox="0 0 80.05 11.56" style="enable-background:new 0 0 80.05 11.56;" xml:space="preserve">
<style type="text/css">
	.st0{fill:#D26EA3;}
</style>
<path class="st0" d="M2.41,6.02c0,0.92,0.59,1.52,1.39,1.52c0.9,0,1.41-0.73,1.41-1.65c0-0.92-0.5-1.65-1.41-1.65
	c-0.8,0-1.39,0.6-1.39,1.52V6.02z M2.45,11.38H0.13V2.69h2.32v1.12c0.34-0.76,1.03-1.29,2.11-1.29c1.88,0,2.98,1.49,2.98,3.37
	c0,1.88-1.1,3.37-2.98,3.37c-1.08,0-1.76-0.53-2.11-1.29V11.38z"/>
<path class="st0" d="M13.44,2.69h2.32v6.4h-2.32v-1.1c-0.32,0.75-1.25,1.28-2.19,1.28c-1.76,0-2.42-1.22-2.42-2.55V2.69h2.32v3.46
	c0,0.87,0.34,1.33,1.05,1.33c0.79,0,1.25-0.69,1.25-1.65V2.69z"/>
<path class="st0" d="M19.83,9.09h-2.32v-6.4h2.32v1.1c0.32-0.75,1.25-1.28,2.19-1.28c1.76,0,2.47,1.22,2.47,2.55v4.02h-2.32V5.63
	c0-0.87-0.39-1.33-1.09-1.33c-0.79,0-1.25,0.69-1.25,1.65V9.09z"/>
<path class="st0" d="M32.6,6.88c-0.27,1.39-1.42,2.38-3.27,2.38c-2.08,0-3.56-1.31-3.56-3.37c0-2.05,1.48-3.37,3.56-3.37
	c1.75,0,2.87,0.89,3.21,2.17l-1.99,0.5c-0.16-0.6-0.52-0.95-1.12-0.95c-0.73,0-1.29,0.55-1.29,1.65s0.56,1.65,1.29,1.65
	c0.65,0,1.02-0.42,1.16-1.1L32.6,6.88z"/>
<path class="st0" d="M41.35,5.76c0-0.92-0.59-1.52-1.39-1.52c-0.9,0-1.41,0.73-1.41,1.65c0,0.92,0.5,1.65,1.41,1.65
	c0.8,0,1.39-0.6,1.39-1.52V5.76z M41.3,7.97c-0.34,0.76-1.03,1.29-2.11,1.29c-1.88,0-2.98-1.49-2.98-3.37c0-1.88,1.1-3.37,2.98-3.37
	c1.08,0,1.76,0.53,2.11,1.29V0.05h2.32v9.04H41.3V7.97z"/>
<path class="st0" d="M49.7,5.24c-0.03-0.63-0.43-1.15-1.16-1.15c-0.75,0-1.12,0.5-1.22,1.15H49.7z M51.79,7.35
	c-0.42,1.29-1.59,1.91-3.23,1.91c-2.12,0-3.59-1.32-3.59-3.27c0-2.02,1.52-3.47,3.56-3.47c2.18,0,3.28,1.46,3.28,3.2v0.55h-4.55
	c0.01,0.77,0.52,1.33,1.39,1.33c0.62,0,1.08-0.21,1.32-0.7L51.79,7.35z"/>
<path class="st0" d="M54.04,6.91c0.39,0.56,1.31,0.85,2.05,0.85c0.57,0,0.95-0.13,0.95-0.42c0-0.29-0.29-0.36-0.66-0.43l-1.31-0.24
	c-1.35-0.26-2.21-0.9-2.21-2.05c0-1.18,1.12-2.09,2.85-2.09c1.52,0,2.47,0.47,3.18,1.26l-1.26,0.93c-0.52-0.49-1.12-0.69-1.92-0.69
	c-0.37,0-0.73,0.11-0.73,0.4c0,0.17,0.14,0.3,0.42,0.36l1.75,0.37c1.13,0.24,2.01,0.8,2.01,1.89c0,1.35-1.16,2.21-3.07,2.21
	c-1.32,0-2.84-0.44-3.51-1.41L54.04,6.91z"/>
<rect x="60.58" y="2.69" class="st0" width="2.32" height="6.4"/>
<path class="st0" d="M67.7,3.75c-0.52,0-0.83,0.34-0.83,0.89c0,0.56,0.32,0.9,0.83,0.9c0.53,0,0.83-0.34,0.83-0.9
	C68.53,4.1,68.23,3.75,67.7,3.75 M67.65,10.46c1.13,0,1.99-0.24,1.99-0.69c0-0.3-0.22-0.42-0.62-0.42h-2.54
	c-0.29,0-0.47,0.16-0.47,0.44C66.02,10.32,66.75,10.46,67.65,10.46 M67.63,11.55c-1.92,0-3.54-0.36-3.54-1.56
	c0-0.56,0.5-1,1.23-1.06c-0.6-0.19-0.96-0.7-0.96-1.25c0-0.65,0.47-1.15,1.26-1.39c-0.66-0.36-1.06-0.93-1.06-1.65
	c0-1.32,1.29-2.12,3.13-2.12c0.79,0,1.53,0.17,2.09,0.5c0.3-0.66,1.08-1.36,2.19-1.2l0.14,1.69c-0.52-0.14-1.16,0.03-1.53,0.23
	c0.16,0.27,0.26,0.57,0.26,0.9c0,1.31-1.33,2.11-3.16,2.11c-0.44,0-0.86-0.04-1.22-0.14c-0.2,0.1-0.39,0.2-0.39,0.44
	c0,0.22,0.16,0.39,0.59,0.39h3.03c1.39,0,2.15,0.72,2.15,1.79C71.84,10.82,69.81,11.55,67.63,11.55"/>
<path class="st0" d="M75.29,9.09h-2.32v-6.4h2.32v1.1c0.32-0.75,1.25-1.28,2.19-1.28c1.76,0,2.47,1.22,2.47,2.55v4.02h-2.32V5.63
	c0-0.87-0.39-1.33-1.09-1.33c-0.79,0-1.25,0.69-1.25,1.65V9.09z"/>
<path class="st0" d="M35.5,8.2c0,0.62-0.5,1.11-1.11,1.11c-0.62,0-1.11-0.5-1.11-1.11c0-0.62,0.5-1.11,1.11-1.11
	C35,7.09,35.5,7.59,35.5,8.2"/>
<path class="st0" d="M62.83,0.67c0,0.62-0.5,1.11-1.11,1.11c-0.62,0-1.11-0.5-1.11-1.11c0-0.62,0.5-1.11,1.11-1.11
	C62.33-0.45,62.83,0.05,62.83,0.67"/>
</svg>
