<svg xmlns="http://www.w3.org/2000/svg" viewBox="0 0 3840 811.91"><defs><style>.cls-1{fill:#fff;}</style></defs><title>punc.desing</title><g id="design"><circle class="cls-1" cx="2330.9" cy="278.56" r="34.74"/><path class="cls-1" d="M1656.48,508.24c-11.58,26.54-35.22,45.36-71.89,45.36-63.21,0-100.37-49.7-100.37-112.91,0-62.73,37.16-112.91,100.37-112.91,36.67,0,60.31,18.82,71.89,45.36V243.82h70v304h-70Zm1.45-71.9c0-34.25-22.19-56.45-51.15-56.45-33.3,0-52.11,26.06-52.11,60.8s18.81,60.8,52.11,60.8c29,0,51.15-22.2,51.15-56.46Z"/><path class="cls-1" d="M1999.11,490.87c-14.47,42-52.6,62.73-106.15,62.73-69.49,0-118.23-43.91-118.23-109.53,0-67.56,50.19-116.29,116.77-116.29,72.39,0,108.57,49.21,108.57,106.64v17.37H1843.74c.48,29.92,20.26,51.15,52.11,51.15,23.65,0,40.05-9.17,49.22-28.47ZM1935.9,419c-1-23.16-16.4-42.94-44.4-42.94-27.5,0-42.46,19.29-46.31,42.94Z"/><path class="cls-1" d="M2073.45,475.43c13.5,20.75,44.39,31.85,70.93,31.85,21.72,0,36.19-5.31,36.19-17.37,0-11.1-10.14-15-24.61-17.85l-44.88-8.69c-42.94-8.69-71.41-28.95-71.41-67.07,0-39.09,37.15-68.52,93.12-68.52,49.22,0,81.07,15.92,103.27,42.47l-38.6,29.42c-16.41-17.37-37.64-25.57-64.67-25.57-14.95,0-28.95,5.31-28.95,16.89,0,7.72,6.28,13,18.34,15.44L2179.6,419c36.67,8.2,65.14,26.53,65.14,62.73,0,43.9-39.08,71.89-100.36,71.89-44.39,0-93.13-15.92-114.84-47.29Z"/><path class="cls-1" d="M2364.36,333.57V547.81h-66.91V333.57Z"/><path class="cls-1" d="M2525.61,631.77c-63.21,0-117.25-13.51-117.25-54,0-19.78,17.37-35.23,42.46-37.64-19.78-6.27-31.85-22.68-31.85-41,0-20.74,15-36.67,39.57-44.87-20.75-12.07-32.81-31.37-32.81-55,0-44.39,41.49-71.41,100.85-71.41,26.05,0,50.18,5.79,68.52,16.89,10.13-21.72,35.7-43.91,71.89-39.09l4.83,52.6c-17.86-4.82-40.05,1-52.6,9.17a55.12,55.12,0,0,1,9.65,31.84c0,43.91-42.94,70.94-102.29,70.94a161.08,161.08,0,0,1-42-5.32c-6.75,3.38-13,7.73-13,15.93s5.79,14.48,21.23,14.48h97.47c46.32,0,72.38,23.64,72.38,59.35C2662.65,607.64,2595.57,631.77,2525.61,631.77Zm1-34.74c39.57,0,70.45-9.17,70.45-27,0-12.55-10.14-16.89-26.55-16.89h-81.05c-12.55,0-21.72,6.27-21.72,18.33C2467.71,590.75,2493.76,597,2526.58,597Zm.47-231.13c-19.29,0-32.32,13-32.32,33.29,0,20.75,13,33.78,32.32,33.78,19.79,0,32.34-13,32.34-33.78C2559.39,378.93,2546.84,365.9,2527.05,365.9Z"/><path class="cls-1" d="M2773.19,547.81h-70V333.57h70v38.6c10.12-25.57,41-44.39,74.3-44.39,58.39,0,82,40.05,82,85.88V547.81h-70V429.59c0-30.88-14-47.76-40.05-47.76-28.47,0-46.31,24.12-46.31,58.38Z"/></g><g id="punc"><path class="cls-1" d="M366.45,629.28h-70V336.86h70v39.57c11.1-26.54,34.74-45.36,71.9-45.36,63.21,0,100.36,50.19,100.36,112.92,0,63.21-37.15,112.9-100.36,112.9-37.16,0-60.8-18.81-71.9-45.35Zm-1.44-181c0,34.26,21.71,56.46,51.14,56.46,33.29,0,51.63-26,51.63-60.79s-18.34-60.81-51.63-60.81c-29.43,0-51.14,22.2-51.14,56.46Z"/><path class="cls-1" d="M739.48,336.86h70V551.1h-70V512.5c-10.14,25.58-41,44.39-73.83,44.39-58.87,0-81.06-40-81.06-85.89V336.86h70V455.08c0,30.88,12.54,47.77,38.59,47.77,28.47,0,46.33-24.12,46.33-58.38Z"/><path class="cls-1" d="M942.17,551.1h-70V336.86h70v38.61c10.14-25.58,41-44.4,74.31-44.4,58.39,0,82,40.05,82,85.89V551.1h-70V432.89c0-30.88-14-47.77-40-47.77-28.47,0-46.32,24.12-46.32,58.38Z"/><path class="cls-1" d="M1368.28,480.66c-10.13,43.91-46.8,76.23-106.63,76.23-69,0-117.74-44.39-117.74-112.9,0-68,48.73-112.92,117.74-112.92,56.45,0,92.15,28.47,104.21,69.49l-59.34,17.37c-6.28-21.24-19.79-34.26-42-34.26-28.47,0-49.22,20.75-49.22,60.32s20.75,60.31,48.74,60.31c24.12,0,38.59-15,43.9-39.09Z"/></g><g id="tecka"><circle class="cls-1" cx="1426.8" cy="516.27" r="34.74"/></g></svg>